<svg width="41" height="40" viewBox="0 0 41 40" fill="none" xmlns="http://www.w3.org/2000/svg">
<g clip-path="url(#clip0_1106_2259)">
<path fill-rule="evenodd" clip-rule="evenodd" d="M3.35863 20.5484L0.498047 32.0195L32.5138 39.9994L35.1063 29.6089H31.9863L35.7487 14.5104H38.8712L40.4981 7.98362L8.47792 0L4.86173 14.5104C4.86173 14.5104 6.71295 21.9515 6.87232 22.5409C7.11857 23.4609 7.22107 24.4584 7.22107 24.8065H7.28294C7.28294 24.4934 7.40669 23.4678 7.63294 22.544C7.89981 21.4609 9.6354 14.5104 9.6354 14.5104H13.1422L15.1453 22.579C15.3922 23.4996 15.4997 24.4952 15.4997 24.8434H15.5603C15.5603 24.5265 15.6778 23.5003 15.9047 22.5765L17.929 14.5104H20.9315L17.1672 29.6089H13.8785L11.7304 21.0528C11.5004 20.1303 11.4348 19.1391 11.4348 18.7922H11.3735C11.3735 19.3122 11.2704 20.1347 11.0441 21.0578L8.90792 29.6089H5.62297L3.35863 20.5484ZM26.1976 14.5104C26.1976 14.5104 27.8382 21.099 28.0532 21.9677C28.2838 22.884 28.5182 24.1808 28.4463 24.6202L28.5082 24.6264L31.0294 14.5104H34.06L30.2944 29.6089H26.9176C26.9176 29.6089 25.3382 23.2658 25.1551 22.544C24.8451 21.3234 24.4814 19.5684 24.5839 18.9828H24.5326L21.8814 29.6089H18.8577L22.6233 14.5104H26.1976Z" fill="#0C419A"/>
</g>
<defs>
<clipPath id="clip0_1106_2259">
<rect width="40" height="40" fill="white" transform="translate(0.498047)"/>
</clipPath>
</defs>
</svg>
